# xmcd
#
# Track frame offsets:
# 182
# 17037
# 34105
# 48747
# 68990
# 79992
# 91872
# 104780
# 116257
# 136665
# 148907
# 161470
# 177320
# 188030
# 204442
#
# Disc length: 2883 seconds
#
#
# Revision: 0
# Processed by: cddbd v1.5.1PL0 Copyright (c) Steve Scherf et al.
# Submitted via: FreeRIP 2.941 
#
DISCID=d00b410f
DTITLE=Liu and Léu - Som da Terra
DYEAR=1900
DGENRE=Sertaneja
TTITLE0=1-Onde Eu Moro
TTITLE1=2-Rainha do Paraná
TTITLE2=3-Chora Moreninha
TTITLE3=4-A Volta Que O
TTITLE4=5-Não Chores
TTITLE5=6-Velha Querência
TTITLE6=7-Filho de Boiadeiro
TTITLE7=8-Não Vá
TTITLE8=9-O Grande Companheiro
TTITLE9=10-Eu Sou Caboclo
TTITLE10=11-Chorei de Dor
TTITLE11=12-Vaidosa
TTITLE12=13-Dona da Saudade
TTITLE13=14-Rei do Café
TTITLE14=15-Paineira Velha
EXTD=
EXTT0=
EXTT1=
EXTT2=
EXTT3=
EXTT4=
EXTT5=
EXTT6=
EXTT7=
EXTT8=
EXTT9=
EXTT10=
EXTT11=
EXTT12=
EXTT13=
EXTT14=
PLAYORDER=
